# xmcd
#
# Track frame offsets:
# 150
# 49125
# 87375
# 99395
# 115200
# 129637
# 179100
# 200925
# 221100
# 267167
# 305150
# 317596
#
# Disc length: 4495 seconds
#
# Revision: 0
# Processed by: cddbd v1.4PL0 Copyright (c) Steve Scherf et al.
# Submitted via: Axialis_AX_CDPlayer 2.6
#
DISCID=be118d0c
DTITLE=Stevie Ray Vaughan - Alone in the Ozone
DYEAR=1900
DGENRE=
TTITLE0=Voodoo Chile (Slight Return)
TTITLE1=Lost Your Good Thing Now
TTITLE2=Honey Bee
TTITLE3=Mary Had a Little Lamb
TTITLE4=Lovestruck Baby
TTITLE5=Tin Pan Alley
TTITLE6=Cold Shot
TTITLE7=Couldn't Stand The Weather
TTITLE8=Texas Flood
TTITLE9=Lenny
TTITLE10=Stan's Swang
TTITLE11=Rude Mood
EXTD=
EXTT0=
EXTT1=
EXTT2=
EXTT3=
EXTT4=
EXTT5=
EXTT6=
EXTT7=
EXTT8=
EXTT9=
EXTT10=
EXTT11=
PLAYORDER=
